<svg xmlns="http://www.w3.org/2000/svg" width="25.578" height="20.435" viewBox="0 0 25.578 20.435">
    <g transform="translate(0.5 0.21)">
        <path data-name="Fill 1" d="M4.417,2.208A2.208,2.208,0,1,0,2.208,4.417,2.208,2.208,0,0,0,4.417,2.208" transform="translate(7.802 15.308)" fill="#fff"></path>
        <path data-name="Stroke 3" d="M4.417,2.208A2.208,2.208,0,1,0,2.208,4.417,2.208,2.208,0,0,0,4.417,2.208Z" transform="translate(7.802 15.308)" fill="none" stroke="#004c70" stroke-linecap="round" stroke-linejoin="round" stroke-miterlimit="10" stroke-width="1"></path>
        <path data-name="Fill 5" d="M4.417,2.208A2.208,2.208,0,1,0,2.208,4.417,2.208,2.208,0,0,0,4.417,2.208" transform="translate(15.641 15.308)" fill="#fff"></path>
        <path data-name="Stroke 7" d="M4.417,2.208A2.208,2.208,0,1,0,2.208,4.417,2.208,2.208,0,0,0,4.417,2.208Z" transform="translate(15.641 15.308)" fill="none" stroke="#004c70" stroke-linecap="round" stroke-linejoin="round" stroke-miterlimit="10" stroke-width="1"></path>
        <g data-name="Group 12" transform="translate(13.913 0.015)">
            <path data-name="Fill 9" d="M0,6.095.053,0a11.034,11.034,0,0,1,10.58,7.9" transform="translate(0.032 0.275)" fill="#fffefb"></path>
            <path data-name="Stroke 11" d="M0,6.095.053,0a11.034,11.034,0,0,1,10.58,7.9" transform="translate(0.032 0.275)" fill="none" stroke="#004c70" stroke-linecap="round" stroke-linejoin="round" stroke-miterlimit="10" stroke-width="1"></path>
        </g>
        <path data-name="Fill 13" d="M4.884,8.739A3.553,3.553,0,0,1,1.512,6.3L0,0H21.3L19.2,6.3c-.482,1.453-1.261,2.434-2.792,2.434Z" transform="translate(3.282 8.194)" fill="#fffefb"></path>
        <path data-name="Stroke 15" d="M16.412,8.739H4.884A3.553,3.553,0,0,1,1.512,6.3L0,0H21.3L19.2,6.3C18.723,7.758,17.944,8.739,16.412,8.739Z" transform="translate(3.282 8.194)" fill="none" stroke="#004c70" stroke-linecap="round" stroke-linejoin="round" stroke-miterlimit="10" stroke-width="1"></path>
        <path data-name="Stroke 17" d="M0,0A3.49,3.49,0,0,1,3.343,2.434L4.332,6.56" transform="translate(0 6.003)" fill="none" stroke="#004c70" stroke-linecap="round" stroke-linejoin="round" stroke-miterlimit="10" stroke-width="1"></path>
    </g>
</svg>