<svg id="Logo"
    xmlns="http://www.w3.org/2000/svg"
    xmlns:xlink="http://www.w3.org/1999/xlink" width="110" height="30.898" viewBox="0 0 110 30.898">
    <defs>
        <clipPath id="clip-path">
            <path id="Clip_2" data-name="Clip 2" d="M0,0H110V30.9H0Z" transform="translate(0)" fill="none"></path>
        </clipPath>
    </defs>
    <path id="Clip_2-2" data-name="Clip 2" d="M0,0H110V30.9H0Z" transform="translate(0)" fill="none"></path>
    <g id="Logo-2" data-name="Logo" clip-path="url(#clip-path)">
        <path id="Fill_1" data-name="Fill 1" d="M33.218,30.9H27.411V7.13H30.86c1.091,0,1.4,1.118,1.479,1.6a5.125,5.125,0,0,1,4.18-1.768c3.9,0,7.844,2.845,7.844,8.284,0,5.733-4.042,8.827-7.844,8.827a5.623,5.623,0,0,1-3.3-.928V30.9Zm2.311-20.869c-3.23,0-3.481,4.135-3.481,5.4s.251,5.4,3.481,5.4c3.141,0,3.48-3.778,3.48-5.4S38.67,10.029,35.529,10.029ZM5.807,30.9H0V7.13H3.449c1.091,0,1.4,1.118,1.479,1.6A5.128,5.128,0,0,1,9.108,6.961c3.9,0,7.844,2.845,7.844,8.284,0,5.733-4.042,8.827-7.844,8.827a5.623,5.623,0,0,1-3.3-.928V30.9ZM8.118,10.029c-3.229,0-3.48,4.135-3.48,5.4s.251,5.4,3.48,5.4c3.141,0,3.48-3.778,3.48-5.4S11.259,10.029,8.118,10.029ZM83.45,24.071c-3.4,0-5.437-2.373-5.437-6.348V9.742H76V7.285h1.821A3.889,3.889,0,0,0,81.41,3.919a1.024,1.024,0,0,1,.951-.933h1.711v4.3h4.155V9.742H84.073v8.083c0,1.059.571,1.77,1.422,1.77a2.206,2.206,0,0,0,2.123-1.227l0-.005a.9.9,0,0,1,.709-.392.7.7,0,0,1,.233.04.642.642,0,0,1,.422.63A5.308,5.308,0,0,1,83.45,24.071Zm-13.657,0c-3.4,0-5.437-2.373-5.437-6.348V9.742H62.345V7.285h1.82a3.8,3.8,0,0,0,3.589-3.365,1.024,1.024,0,0,1,.951-.933h1.712v4.3h4.154V9.742H70.417v8.083c0,1.059.571,1.77,1.421,1.77a2.209,2.209,0,0,0,2.124-1.227l0-.005a.908.908,0,0,1,.71-.393.7.7,0,0,1,.233.04.642.642,0,0,1,.421.63A5.308,5.308,0,0,1,69.793,24.071Zm28.872-.086a8.54,8.54,0,0,1-6.194-2.38,8.622,8.622,0,0,1-2.408-6.277A8.307,8.307,0,0,1,92.636,9.2,8.688,8.688,0,0,1,98.63,6.875a7.569,7.569,0,0,1,5.433,1.885,4.007,4.007,0,0,1,1.234,2.832,2.948,2.948,0,0,1-1.681,2.625c-.726.484-6.492,3.627-7.147,3.984a4.962,4.962,0,0,0,3.606,1.5l.117,0a7.275,7.275,0,0,0,4.085-1.56.92.92,0,0,1,.628-.286,1.1,1.1,0,0,1,.418.1.725.725,0,0,1,.422.734C105.676,20.593,103.25,23.986,98.665,23.986Zm-.65-14.238a2.757,2.757,0,0,0-1.942.863c-.993,1.015-1.346,3.536-.77,5.5l.04-.022c2.38-1.354,3.515-2,4.049-2.315.9-.524,1.338-1.073,1.338-1.678a2.333,2.333,0,0,0-.757-1.634,2.632,2.632,0,0,0-1.859-.722l-.067,0h-.031ZM54.433,23.986a8.54,8.54,0,0,1-6.194-2.38,8.625,8.625,0,0,1-2.407-6.277A8.3,8.3,0,0,1,48.4,9.2,8.684,8.684,0,0,1,54.4,6.875,7.567,7.567,0,0,1,59.832,8.76a4.006,4.006,0,0,1,1.233,2.832,2.948,2.948,0,0,1-1.681,2.625c-.788.524-7.085,3.951-7.146,3.984a4.959,4.959,0,0,0,3.606,1.5l.117,0a7.274,7.274,0,0,0,4.084-1.56.921.921,0,0,1,.629-.286,1.1,1.1,0,0,1,.418.1.725.725,0,0,1,.422.734C61.444,20.593,59.018,23.986,54.433,23.986Zm-.65-14.238a2.76,2.76,0,0,0-1.942.863c-.993,1.016-1.346,3.537-.77,5.5l.331-.188.256-.146.005,0,.44-.251c1.714-.976,2.6-1.483,3.056-1.749.9-.525,1.338-1.074,1.338-1.678a2.333,2.333,0,0,0-.758-1.634,2.632,2.632,0,0,0-1.859-.722l-.072,0h-.026Zm-28.9,13.983H18.857V7.13h6.027v16.6ZM107.811,5.587h-.571v-2.6h.632l.748,1.9.748-1.9H110v2.6h-.571V4.162l-.043.137,0,.014-.022.067c0,.014-.008.027-.013.04l-.005.019,0,.012c-.019.065-.031.1-.031.1l-.423,1.034h-.527l-.423-1.034c-.013-.044-.1-.329-.122-.391V5.586Zm-1.929,0H105.3V3.511h-.748V2.983h2.08v.528h-.747V5.585ZM21.916,5.472A2.808,2.808,0,0,1,18.87,2.736,2.777,2.777,0,0,1,21.916,0a2.793,2.793,0,0,1,3.02,2.736A2.793,2.793,0,0,1,21.916,5.472Z" transform="translate(0 0)" fill="#084b6d"></path>
    </g>
</svg>